<svg width="40" height="60" viewBox="0 0 40 60" fill="none" xmlns="http://www.w3.org/2000/svg">
<path d="M9 17.0833C9 12.3338 12.9462 8.47223 17.8 8.47223H22.2C27.0537 8.47223 31 12.3338 31 17.0833V17.5677C31 20.5009 29.4737 23.2322 26.9575 24.8064L21.155 28.4527C17.69 30.6324 15.6 34.3863 15.6 38.4093V38.6111C15.6 40.9926 17.5662 42.9167 20 42.9167C22.4337 42.9167 24.4 40.9926 24.4 38.6111V38.4227C24.4 37.3194 24.9775 36.2969 25.9125 35.7049L31.715 32.0586C36.7475 28.8832 39.8 23.434 39.8 17.5677V17.0833C39.8 7.57075 31.9212 -0.138885 22.2 -0.138885H17.8C8.07875 -0.138885 0.199997 7.57075 0.199997 17.0833C0.199997 19.4648 2.16625 21.3889 4.6 21.3889C7.03375 21.3889 9 19.4648 9 17.0833ZM20 60.1389C21.4587 60.1389 22.8576 59.5719 23.8891 58.5626C24.9205 57.5532 25.5 56.1843 25.5 54.7569C25.5 53.3296 24.9205 51.9606 23.8891 50.9513C22.8576 49.942 21.4587 49.375 20 49.375C18.5413 49.375 17.1424 49.942 16.1109 50.9513C15.0795 51.9606 14.5 53.3296 14.5 54.7569C14.5 56.1843 15.0795 57.5532 16.1109 58.5626C17.1424 59.5719 18.5413 60.1389 20 60.1389Z" fill="black"/>
</svg>
