<svg width="53" height="60" viewBox="0 0 53 60" fill="none" xmlns="http://www.w3.org/2000/svg">
<path d="M35.9643 15C35.9643 12.5136 34.9672 10.129 33.1923 8.37087C31.4174 6.61272 29.0101 5.625 26.5 5.625C23.9899 5.625 21.5826 6.61272 19.8077 8.37087C18.0328 10.129 17.0357 12.5136 17.0357 15C17.0357 17.4864 18.0328 19.871 19.8077 21.6291C21.5826 23.3873 23.9899 24.375 26.5 24.375C29.0101 24.375 31.4174 23.3873 33.1923 21.6291C34.9672 19.871 35.9643 17.4864 35.9643 15ZM11.3571 15C11.3571 11.0218 12.9525 7.20644 15.7924 4.3934C18.6322 1.58035 22.4839 0 26.5 0C30.5161 0 34.3678 1.58035 37.2076 4.3934C40.0475 7.20644 41.6429 11.0218 41.6429 15C41.6429 18.9782 40.0475 22.7936 37.2076 25.6066C34.3678 28.4196 30.5161 30 26.5 30C22.4839 30 18.6322 28.4196 15.7924 25.6066C12.9525 22.7936 11.3571 18.9782 11.3571 15ZM5.83237 54.375H47.1676C46.1147 46.957 39.679 41.25 31.9065 41.25H21.0935C13.321 41.25 6.88527 46.957 5.83237 54.375ZM0 56.5195C0 44.9766 9.44063 35.625 21.0935 35.625H31.9065C43.5594 35.625 53 44.9766 53 56.5195C53 58.4414 51.4266 60 49.4864 60H3.51362C1.57344 60 0 58.4414 0 56.5195Z" fill="black"/>
</svg>
